PathFileType  4	(X/Y/Z) C:\Users\antoi\Documents\MyRepositories\mobilecap\ResultsAnalysis
DataRate	CameraRate	NumFrames	NumMarkers	Units	OrigDataRate	OrigDataStartFrame	OrigNumFrames
100.0	100.0	4	51	mm	100.0	102	163
Frame#	Time	r_knee			r_shank_antsup			r_ankle			r_calc			r_5meta			r_toe			L_knee			L_shank_antsup			L_ankle			L_calc			L_5meta			L_toe			r_sh2			r_sh3			r_sh4			L_sh2			L_sh3			r_thigh1			r_thigh2			r_thigh3			r_thigh4			r_thigh5			L_thigh1			L_thigh2			L_thigh3			L_thigh4			r.ASIS			r.PSIS			L.ASIS			L.PSIS			C7			R_Shoulder			L_Shoulder			R_Sternum			L_Sternum			R_humerus			R_elbow_med			R_elbow_lat			R_forearm			R_wrist_radius			R_wrist_ulna			L_humerus			L_elbow_med			L_elbow_lat			L_forearm			L_wrist_radius			L_wrist_ulna			R_HJC			L_HJC			R_HJC_reg			L_HJC_reg			
		X1	Y1	Z1	X2	Y2	Z2	X3	Y3	Z3	X4	Y4	Z4	X5	Y5	Z5	X6	Y6	Z6	X7	Y7	Z7	X8	Y8	Z8	X9	Y9	Z9	X10	Y10	Z10	X11	Y11	Z11	X12	Y12	Z12	X13	Y13	Z13	X14	Y14	Z14	X15	Y15	Z15	X16	Y16	Z16	X17	Y17	Z17	X18	Y18	Z18	X19	Y19	Z19	X20	Y20	Z20	X21	Y21	Z21	X22	Y22	Z22	X23	Y23	Z23	X24	Y24	Z24	X25	Y25	Z25	X26	Y26	Z26	X27	Y27	Z27	X28	Y28	Z28	X29	Y29	Z29	X30	Y30	Z30	X31	Y31	Z31	X32	Y32	Z32	X33	Y33	Z33	X34	Y34	Z34	X35	Y35	Z35	X36	Y36	Z36	X37	Y37	Z37	X38	Y38	Z38	X39	Y39	Z39	X40	Y40	Z40	X41	Y41	Z41	X42	Y42	Z42	X43	Y43	Z43	X44	Y44	Z44	X45	Y45	Z45	X46	Y46	Z46	X47	Y47	Z47	X48	Y48	Z48	X49	Y49	Z49	X50	Y50	Z50	X51	Y51	Z51	

102	1.01000000	983.37753	578.73372	-133.73227	948.49889	456.92040	-144.91208	696.16088	235.72155	-224.61391	653.14150	242.76984	-299.58361	729.77450	97.84166	-148.84168	803.16909	97.65448	-188.84660	894.36089	548.75152	-505.44093	931.22885	444.39967	-490.53917	835.03692	103.29202	-481.99884	775.86142	73.34367	-428.06798	969.63674	35.15340	-525.31623	1010.34630	55.25693	-459.95211	893.78558	361.25356	-175.49047	879.63775	488.49251	-128.01886	820.90739	388.29958	-141.54319	848.83837	444.45323	-529.23403	869.38719	326.36240	-542.01968	1043.08526	820.52180	-144.91258	1068.35851	710.84443	-148.37849	1033.07716	677.99055	-100.53851	947.37971	795.17876	-89.45519	975.58193	680.70484	-100.99239	993.69599	791.96349	-518.35491	990.65231	654.93500	-507.07051	886.92151	790.37121	-550.22806	883.15914	651.71991	-530.67625	968.13623	1071.24931	-186.58510	786.20316	1111.78446	-308.56453	1017.41448	1037.93969	-444.85347	802.33479	1105.00866	-404.44730	905.62550	1551.02568	-553.03757	943.12245	1580.93172	-347.06058	985.35486	1406.27368	-660.08437	1026.57444	1482.10820	-463.49255	1028.73281	1459.24823	-504.78421	923.18406	1462.91024	-204.42076	811.91054	1256.88042	-159.35926	846.27316	1301.23719	-96.00112	943.57133	1156.82764	-61.72743	979.14496	1045.43879	-24.74658	954.99460	1045.71016	9.72034	1019.95799	1225.53237	-679.61048	978.58866	1022.97400	-584.07170	1012.97904	1025.28183	-657.26775	1139.34563	927.35902	-606.60907	1198.79865	823.02838	-598.14585	1168.05772	801.82009	-629.59828	885.84237	995.00723	-227.63492	924.55268	959.58059	-434.47984	898.10191	987.04947	-230.55160	927.05381	974.88573	-402.62311	
103	1.02000000	997.56896	580.51275	-134.09231	965.35211	457.63768	-145.26356	720.98961	227.44694	-224.88487	677.70440	232.19621	-299.92285	760.10327	91.64953	-147.87449	833.63695	94.35928	-187.64374	897.80481	549.22150	-505.39590	933.80688	444.57608	-490.59832	835.16200	104.08519	-482.06467	776.09582	73.97322	-428.15377	969.68783	35.11360	-525.34200	1010.32908	55.13732	-460.03997	914.09467	360.10383	-175.49535	895.50158	487.03159	-128.65095	840.13762	384.86927	-141.93640	851.34741	445.18996	-529.08368	871.00959	327.00509	-542.00184	1054.02239	823.04368	-146.75860	1080.47067	713.71420	-150.30302	1046.48132	680.63034	-101.65314	959.65017	796.91254	-89.45679	988.95927	682.68105	-101.13266	999.67339	791.46379	-518.70747	995.21053	654.48495	-507.71154	892.58358	790.97863	-549.94378	887.51712	652.45745	-530.35775	976.65099	1071.88761	-186.83074	794.66372	1112.19288	-308.73463	1026.16451	1037.90426	-445.29245	810.87550	1105.15285	-404.59397	914.78655	1550.25961	-555.20479	951.51800	1581.26348	-349.18524	994.88147	1405.15596	-661.23006	1035.42782	1481.89223	-464.90866	1037.61027	1458.81064	-506.16345	930.66645	1464.04689	-206.00565	819.51816	1258.15213	-160.45186	853.14009	1303.07707	-97.07755	950.45698	1159.20489	-60.80803	985.96255	1048.17364	-22.63946	961.60382	1048.71785	11.55588	1031.24821	1224.91591	-680.00937	992.67148	1022.39827	-583.46490	1027.44016	1024.92953	-656.75621	1155.72987	929.83214	-604.53726	1217.34616	826.86307	-595.05685	1187.16304	804.77986	-626.45281	894.45123	995.53202	-227.69495	933.06536	959.65427	-434.47984	906.58590	987.52612	-230.68862	935.71339	974.87462	-402.90866	
104	1.03000000	1011.43135	582.09291	-134.53629	982.11328	458.22241	-145.67348	746.26570	218.99705	-225.01048	702.84551	221.44815	-300.11937	790.82083	85.52254	-146.82416	864.33415	91.14191	-186.39712	901.41672	549.66140	-505.36363	936.52917	444.71766	-490.65816	835.35278	104.84932	-482.13400	776.40108	74.60818	-428.24930	969.74216	35.07719	-525.38010	1010.31698	55.03325	-460.12735	934.44663	358.85918	-175.54811	911.27874	485.28943	-129.33583	859.47566	381.19949	-142.30679	854.01155	445.90016	-528.97868	872.77230	327.61269	-541.98737	1064.74941	825.34957	-148.76391	1092.22565	716.31703	-152.40361	1059.57164	683.05079	-102.95338	971.68597	798.48730	-89.62784	1002.03179	684.52119	-101.44337	1005.69405	790.96287	-519.02640	999.85964	654.03440	-508.30513	898.33822	791.51388	-549.69812	891.96078	653.21342	-530.02815	985.16620	1072.35964	-187.02809	803.09807	1112.50436	-308.83258	1034.90096	1037.78345	-445.62682	819.34301	1105.22403	-404.67554	923.90727	1549.47729	-557.12107	959.97730	1581.40696	-351.04049	1004.33125	1404.07838	-662.27072	1044.26309	1481.58365	-466.18705	1046.30727	1458.28432	-507.52117	938.26151	1464.89350	-207.40784	827.26071	1259.11614	-161.41357	860.17545	1304.57063	-98.02791	957.45892	1161.18306	-59.89410	992.86840	1050.48473	-20.64058	968.28348	1051.29537	13.29677	1042.34081	1224.35476	-680.38405	1006.46934	1021.88172	-582.90154	1041.59879	1024.63236	-656.33055	1171.71770	932.38738	-602.48760	1235.42628	830.81214	-591.99141	1205.83661	807.89015	-623.33453	903.02489	995.92277	-227.70735	941.53959	959.64846	-434.43995	915.08412	987.89450	-230.74821	944.29638	974.80107	-403.09130	
105	1.04000000	1024.97711	583.46496	-135.07827	998.80579	458.68564	-146.15059	771.95513	210.46498	-224.98176	728.54558	210.63585	-300.17507	821.86479	79.56647	-145.70087	895.18229	88.08421	-185.11825	905.19348	550.05446	-505.34313	939.38829	444.80564	-490.70712	835.62541	105.57210	-482.20338	776.77374	75.24053	-428.34288	969.79657	35.04512	-525.42838	1010.33458	54.95370	-460.20951	954.81057	357.55637	-175.65772	926.98880	483.28054	-130.06392	878.92975	377.33890	-142.65578	856.83997	446.56945	-528.92029	874.68507	328.17387	-541.97091	1075.25357	827.41542	-150.89126	1103.64723	718.64201	-154.64377	1072.34314	685.22875	-104.42182	983.49394	799.87042	-89.96691	1014.82321	686.22464	-101.91127	1011.76047	790.43700	-519.26922	1004.62025	653.57219	-508.78720	904.20092	791.96900	-549.49106	896.51162	653.96243	-529.69689	993.67522	1072.67111	-187.18855	811.50680	1112.72186	-308.86447	1043.52123	1037.50916	-445.80613	827.73731	1105.23199	-404.70634	933.00138	1548.68540	-558.76794	968.49762	1581.37155	-352.63244	1013.70094	1403.03491	-663.19666	1053.08925	1481.18485	-467.31932	1054.85144	1457.66963	-508.83591	945.99886	1465.45958	-208.62433	835.14114	1259.78639	-162.24767	867.38523	1305.72948	-98.85179	964.57622	1162.76643	-58.98229	999.85314	1052.36923	-18.74028	975.04323	1053.44425	14.95355	1053.24618	1223.85485	-680.72480	1019.98850	1021.40886	-582.37919	1055.45810	1024.37837	-655.90257	1187.29098	934.99883	-600.46766	1253.01959	834.84091	-588.96547	1224.05542	811.11795	-620.26434	911.51625	996.19737	-227.64405	949.90395	959.51518	-434.32599	923.56415	988.12965	-230.73514	952.75958	974.65673	-403.13231	
